<svg xmlns="http://www.w3.org/2000/svg" width="1600" height="1600" version="1.0" viewBox="0 0 1200 1200">
<path fill="#fff" d="M263.5 225c-13.2 3.5-22.3 8.6-31.8 17.8-9.9 9.6-16.7 21-19.7 32.9l-1.3 5.2-27.6.3c-26.3.3-27.9.5-33.6 2.7-8.1 3.3-16.3 11.5-19.6 19.6l-2.4 6v640l3.2 6.7c3.8 8.1 9.7 14.2 17.2 17.7l5.6 2.6 316.8.3 316.9.2 98.6-49.6c54.3-27.2 99.7-50.5 101-51.7 1.2-1.1 2.6-3.7 3.2-5.6.5-2.1.9-34.2.9-75.5 0-39.5.4-72.2.8-72.6.4-.4 17.2-6.2 37.3-13 26.7-8.9 37.2-12.9 39.3-14.8 5.4-5.1 5.4-13.8-.2-18.5-2.8-2.4-9.9-4.8-149.6-52l-54-18.2-.5-149-.5-149-2.2-4.7c-3.1-6.9-6.7-11.2-12.6-15.2-8.5-5.8-13.7-6.6-42.4-6.6h-25.2l-1.1-4.3c-6.4-25-26.7-45.4-51.6-51.7-10.3-2.7-24.5-2.7-35 0-24.6 6.2-43.1 23.8-51 48.5l-2.2 7-36.9.3-37 .2-1.7-6.2c-4.9-17.7-19.2-35.3-35.3-43.6-35.9-18.6-79.3-4.8-97.3 31-2.1 4.2-4.4 10.2-5.1 13.3l-1.2 5.5h-74.2l-2.9-9.1c-7.5-23.4-27.4-41.6-51.8-47.4-8.8-2.1-24.6-1.8-33.3.5zm31.9 26c11.7 3.7 24.5 15.8 28.4 26.9l1.1 3.1H237l1.5-3.7c5.2-12.4 14.4-21.3 26.9-25.9 8.2-3.1 20.7-3.2 30-.4zm214.4-.2c7.4 2.4 16.2 8.1 20.6 13.6 3.8 4.6 8.6 13.2 8.6 15.2 0 1.2-7.6 1.4-43.5 1.4H452l1-2.5c4.9-12.9 15-22.8 28.1-27.5 7.3-2.6 20.6-2.7 28.7-.2zm220.5 2.5c4.5 2.2 9.7 5.8 12.5 8.6 4.3 4.3 11.2 15.4 11.2 18 0 .8-12.3 1.1-43.5 1.1-23.9 0-43.5-.3-43.5-.6 0-2.7 6.6-13.1 11.5-18 10.2-10.4 18.2-13.5 33.6-13.1 10 .2 11 .4 18.2 4zm-518.4 59.2c.7 3.1 3 9.1 5.1 13.3 11.3 22.5 32.5 37 58.3 39.7 5.6.6 7.3.4 11.1-1.4 4.5-2.2 7.6-6.7 7.6-11 0-6.9-6.3-13.1-13.2-13.1-17.9 0-35-11.9-42.3-29.3L237 307l94.1.2 94.1.3 2.2 7c7.2 22.8 23.7 39.8 46.1 47.5 8.7 3 21 4.5 25.5 3.1 4.6-1.4 8.7-5.9 9.6-10.5 1.3-7.2-5.2-14.6-12.8-14.6-5.7 0-13.7-2-19.8-4.8-7.3-3.4-17.8-14-21.3-21.4-1.5-3.1-2.7-5.9-2.7-6.2 0-.3 42.3-.6 94-.6 74.4 0 94.1.3 94.4 1.2 3 10.4 5.4 16.5 8.7 22 7.9 13.4 20.7 24.5 34.9 30.2 7.8 3.2 23.6 6.1 28.5 5.2 4.6-.9 9.1-4.8 10.5-9.2 2.6-7.8-4-16.4-12.6-16.4-5.9 0-16.2-2.7-21.7-5.7-8.8-4.9-18.5-16.3-21.2-25.1l-.6-2.2h81.5c49.3 0 82.5.4 84 1 5.2 1.9 5.4 3.2 5.8 34.8l.3 29.2H152.9l.3-29.6.3-29.6 3.3-2.9 3.2-2.9h50.7l1.2 5.5zM838 497c0 55-.4 99-.9 99-.4 0-12.1-3.8-25.9-8.5-13.8-4.7-26-8.5-27-8.5-2 0-279 93.3-282.4 95.1-2.9 1.6-5.8 7-5.8 10.9 0 4 2.9 9.3 6 11 1.2.6 14.8 5.4 30.3 10.7 15.5 5.2 32.1 10.9 37 12.5l8.7 3v148.5l2.3 3.3c1.8 2.7 13.9 9.2 74.5 39.8C694.5 934 727 950.7 727 951c0 .3-127.6.4-283.7.3-255.3-.3-283.9-.4-286-1.8-1.3-.9-2.8-2.7-3.3-4.1-.6-1.6-1-104.2-1-275V398h685v99zm63.7 148.2c63.9 21.6 116.3 39.5 116.3 39.8 0 .3-10.2 3.9-22.8 8.2-12.5 4.2-54.9 18.5-94.2 31.8-39.3 13.3-81.7 27.6-94.2 31.8l-22.7 7.6-46.8-15.8c-25.7-8.7-78.4-26.4-117-39.4-38.6-13.1-69.9-24-69.5-24.4.9-.8 231.3-78.7 233.1-78.7.8-.1 53.8 17.6 117.8 39.1zm-269.4 95.3 25.7 8.8v68.3c0 37.6-.3 68.4-.7 68.4-.5 0-12.5-6-26.8-13.4l-26-13.3-.3-64.2c-.2-51.3 0-64.2 1-63.9.7.3 12.9 4.4 27.1 9.3zM965 795v64l-27 13.5c-14.8 7.4-27.2 13.5-27.5 13.5-.3 0-.5-30.8-.5-68.4v-68.4l26.8-9c14.7-5 27-9.1 27.5-9.1.4-.1.7 28.7.7 63.9zm-231.9-20.5c25.5 8.6 48 15.9 49.9 16.2 2.7.3 15-3.5 52.3-16.1L884 758v141.5l-50.3 25.2-50.4 25.1-49.6-25-49.7-25.1v-71c0-58.4.2-70.8 1.3-70.4.8.3 22.2 7.6 47.8 16.2z"/>
<path fill="#fff" d="M194.9 449.5c-1.4.8-3.5 2.7-4.5 4.2-1.8 2.7-1.9 5.4-1.9 53.3 0 56.2-.3 53.7 6.8 58 3.1 1.9 5.4 2 52.8 2h49.6l3.4-2.3c7-4.7 6.9-3.7 6.8-57.2 0-34.5-.3-49-1.2-51.5-.7-1.9-2.7-4.4-4.6-5.7l-3.4-2.3h-50.6c-41.7.1-51.1.3-53.2 1.5zm86.9 57.7.2 33.8h-68v-33.3c0-18.4.3-33.7.7-34 .4-.4 15.5-.6 33.7-.5l33.1.3.3 33.7zM359.8 449.6c-5.8 3.1-5.8 2.6-5.8 58.2 0 50.7 0 50.9 2.2 53.7 4.3 5.5 4.6 5.5 57.5 5.5 45.4 0 49.1-.1 52.2-1.8 1.9-1 4.3-3.4 5.3-5.3 1.7-3.1 1.8-6.8 1.8-52.2 0-52.9 0-53.2-5.5-57.5-2.8-2.2-2.9-2.2-53.9-2.2-43.2.1-51.5.3-53.8 1.6zm87 57.7.2 33.7-33.7-.2-33.8-.3-.3-32.5c-.1-17.9 0-33.1.3-33.8.3-1 7.5-1.2 33.7-1l33.3.3.3 33.8zM522.9 451.9l-3.9 3.9v50.8c0 49.3.1 51 2 54.2 3.8 6.2 3.9 6.2 57.5 6.2s53.7 0 57.5-6.2c2-3.2 2-4.5 1.8-54.6l-.3-51.4-3.7-3.4-3.8-3.4H526.8l-3.9 3.9zm88.9 55.3.2 33.8h-67v-68l33.3.2 33.2.3.3 33.7zM689.6 450.1c-5.7 4.5-5.6 3.5-5.6 57.1 0 55.1-.1 54.2 7 58 3.2 1.7 6.9 1.8 52.3 1.8 53.9 0 53.9 0 57.7-6.2 1.9-3.2 2-4.9 2-53.6 0-44.9-.2-50.7-1.6-53.2-3.7-6.2-2.2-6-58.2-6-50.1 0-51 0-53.6 2.1zM777 507v34h-67v-33.3c0-18.4.3-33.7.7-34 .3-.4 15.4-.7 33.5-.7H777v34zM196.1 616.8c-1.9.9-4.4 3-5.5 4.5-2.1 2.8-2.1 3.8-2.1 53.5 0 48.1.1 50.8 1.9 53.5 3.9 5.8 3 5.7 58.5 5.7h50.9l3.1-2.6c1.7-1.4 3.5-4.2 4.1-6.2.8-2.5 1-19.8.8-52.4-.3-47.4-.4-48.7-2.4-51.5-4.7-6.4-3.9-6.3-57.4-6.3-44.2 0-48.8.2-51.9 1.8zm85.7 57.9-.3 33.8h-67l-.3-33.8-.2-33.7h68l-.2 33.7zM361.5 616.4c-1.6.7-3.9 2.3-5 3.6-1.9 2.1-2 3.8-2.3 53.6-.2 44.7-.1 51.8 1.3 54.4 3.1 6.1 2.4 6 58.3 6 50.7 0 50.9 0 53.7-2.2 5.5-4.3 5.5-4.6 5.5-57.5 0-45.4-.1-49.1-1.8-52.2-1-1.9-3.4-4.3-5.3-5.3-3.1-1.7-6.8-1.8-52.4-1.8-38.4.1-49.6.4-52 1.4zM447 675v34l-33.7-.2-33.8-.3-.3-32.5c-.1-17.9 0-33 .3-33.7.3-1 8-1.3 34-1.3H447v34zM194.6 785c-6.2 4-6.1 2.9-6.4 55.3-.2 30.2.1 49.1.7 51.5.6 2.1 2.5 5.1 4.1 6.7l3.1 3 50.5.3c57.6.3 56.1.5 59.6-7.5 1.8-4 1.9-6.9 1.6-53.5-.3-46.5-.4-49.5-2.2-52.1-3.9-5.8-3-5.7-57.8-5.7-48.1 0-50.4.1-53.2 2zm87.4 57.5V876h-68v-67h68v33.5zM357.9 786.9l-3.9 3.9V894l3.4 3.8 3.4 3.7 51.4.3c50.1.2 51.4.2 54.6-1.8 6.2-3.8 6.2-3.9 6.2-57.5s0-53.7-6.2-57.5c-3.2-1.9-4.9-2-54.2-2h-50.8l-3.9 3.9zm89.1 55.6V876l-33.7-.2-33.8-.3-.3-33.3-.2-33.2h68v33.5z"/>
    <style>
        path { fill: #000; }

        @media (prefers-color-scheme: dark) {
            path { fill: #fff; }
        } 
    </style>
</svg>